<?xml version="1.0" encoding="UTF-8"?>
<svg id="katman_1" data-name="katman 1" xmlns="http://www.w3.org/2000/svg" viewBox="0 0 437.48 116.75">
  <defs>
    <style>
      .cls-1 {
        fill: #f1f1f1;
      }
    </style>
  </defs>
  <g>
    <path class="cls-1" d="M174.16,105.92V41.37h-7.23v-9.85h24.23v9.85h-7.14v64.54h-9.85Z"/>
    <path class="cls-1" d="M194.13,43.36c0-8.41,4.07-12.66,12.11-12.66s12.11,4.25,12.11,12.66v50.71c0,8.41-4.07,12.66-12.11,12.66s-12.11-4.25-12.11-12.66v-50.71ZM208.51,43.36c0-1.9-.72-2.8-2.26-2.8s-2.26.9-2.26,2.8v50.71c0,1.9.72,2.8,2.26,2.8s2.26-.9,2.26-2.8v-50.71Z"/>
    <path class="cls-1" d="M224.33,43.36c0-8.41,4.07-12.66,12.11-12.66s12.11,4.25,12.11,12.66v50.71c0,8.41-4.07,12.66-12.11,12.66s-12.11-4.25-12.11-12.66v-50.71ZM238.7,43.36c0-1.9-.72-2.8-2.26-2.8s-2.26.9-2.26,2.8v50.71c0,1.9.72,2.8,2.26,2.8s2.26-.9,2.26-2.8v-50.71Z"/>
    <path class="cls-1" d="M259.49,105.92l-7.77-74.4h10.21c3.16,36.79,3.98,47.19,4.43,57.4.72-10.12,1.27-20.52,4.88-57.4h9.76l-8.41,74.4h-13.11Z"/>
    <path class="cls-1" d="M308.03,106.37l-2.26-4.07c-1.45,2.89-4.97,4.43-9.04,4.43-6.42,0-11.21-3.16-11.21-12.66v-50.62c0-8.32,3.8-12.75,11.75-12.75s11.3,4.43,11.3,12.75v13.11h-6.15v-13.11c0-3.89-1.45-5.79-5.15-5.79s-4.88,1.9-4.88,5.79v50.62c0,3.89,1.99,5.88,4.79,5.88,3.25,0,5.06-1.81,5.33-5.33v-16.9h-5.69v-6.51h12.29v35.17h-1.08Z"/>
    <path class="cls-1" d="M334.88,105.92l-1.63-12.47h-11.12l-1.63,12.47h-6.69l10.22-74.4h8.05l9.67,74.4h-6.87ZM332.44,87.11c-1.54-12.75-3.16-25.04-4.61-38.15-1.54,13.11-3.16,25.4-4.88,38.15h9.49Z"/>
    <path class="cls-1" d="M375.11,105.92v-22.51c0-10.94.09-21.24.18-32.18l-8.05,54.69h-6.06l-7.96-54.69c.09,10.94.18,21.24.18,32.18v22.51h-6.33V31.52h9.22l7.86,58.13,7.86-58.13h9.49v74.4h-6.42Z"/>
    <path class="cls-1" d="M388.94,105.92V31.52h19.71v6.96h-12.84v26.13h9.04v6.87h-9.04v27.66h13.29v6.78h-20.16Z"/>
    <path class="cls-1" d="M430.61,83.86c0-4.52-.45-5.42-2.26-7.68-3.8-4.7-8.95-9.04-11.57-12.38-2.26-2.89-2.44-4.7-2.44-9.67v-11.12c0-8.32,3.89-12.29,11.84-12.29s11.03,4.07,11.03,12.29v13.56h-6.42v-12.66c0-3.71-.99-6.24-4.7-6.24-3.16,0-4.79,1.81-4.79,5.33v11.03c0,3.16.27,4.07,1.63,5.79,3.25,4.25,8.5,8.59,11.3,12.11,2.44,3.07,3.25,5.33,3.25,11.84v10.67c0,7.86-3.25,12.29-11.48,12.29s-11.66-4.25-11.66-12.29v-15.82h6.6v14.83c0,3.98,1.18,6.51,4.97,6.51,3.34,0,4.7-1.99,4.7-5.51v-10.58Z"/>
  </g>
  <g>
    <g>
      <g>
        <g>
          <ellipse class="cls-1" cx="100.67" cy="73.62" rx="17.01" ry="12.52" transform="translate(-1.29 145.44) rotate(-71.34)"/>
          <ellipse class="cls-1" cx="58.16" cy="69.25" rx="15.36" ry="21.62" transform="translate(-19.84 23.49) rotate(-19.57)"/>
        </g>
        <ellipse class="cls-1" cx="50.34" cy="78.42" rx="1.63" ry="4.36" transform="translate(-35.95 43.24) rotate(-35.12)"/>
        <ellipse class="cls-1" cx="91.39" cy="79.5" rx="1.46" ry="3.33" transform="translate(-13.54 18.98) rotate(-11.05)"/>
        <ellipse class="cls-1" cx="46.77" cy="71.53" rx="1.63" ry="2.64" transform="translate(-19.25 17.26) rotate(-17.4)"/>
        <ellipse class="cls-1" cx="91.01" cy="73.74" rx="1.88" ry="1.13" transform="translate(8.77 157.14) rotate(-84.42)"/>
      </g>
      <path class="cls-1" d="M72.31,92.71c1.24,3.49,4.54,5.85,8.23,5.88,3.75.03,7.13-2.34,8.39-5.88h-16.62Z"/>
    </g>
    <path class="cls-1" d="M149.46,41.71c9.4-13.48,5.47-30.3-8.96-38.32l-6.06-3.39.43,6.85c.43,6.96-.67,13.41-3,19.38-4.49-2.72-10.01-4.59-16.79-5.7-10.66-1.73-23.99-1.6-39.44-1.44-25.92.27-44.26.47-55.65,9.92-.36-2.82-.47-5.73-.28-8.74l.43-6.85s-6.06,3.39-6.06,3.39C-.36,24.83-4.3,41.65,5.11,55.13c.83,1.18,1.76,2.29,2.75,3.34-.12,2.6-.13,5.05-.13,7.21v.3c0,7.14,0,20.42,7.19,31.28,6.12,9.24,16.16,15.03,30.71,17.69,7.91,1.45,16.35,1.8,24.22,1.8,4.01,0,7.88-.09,11.45-.18,11-.26,22.37-.53,32.79-2.89,12.44-2.81,21.16-8.18,26.68-16.42,7.2-10.74,7.2-24.07,7.2-31.22v-.19h-3.79l3.79-.02c0-5.5,0-12.83-1.97-20.05,1.27-1.25,2.44-2.62,3.47-4.08ZM140.38,65.84v.2c0,6.8,0,18.18-5.91,27-9.99,14.91-33.02,15.46-53.34,15.94-20.5.49-48.59,1.15-59.88-15.92-5.93-8.96-5.93-20.76-5.93-27.09v-.3c0-.26,0-.51,0-.77,0-.28,0-.56,0-.84-.04-.04-.08-.08-.12-.12-1.37-1.68-2.64-3.36-3.74-5.12-5.26-8.21-7.43-19.41-1.84-27.84.82-1.26,1.8-2.44,2.89-3.53,1.02,7.42,4.03,14.56,8.83,20.33,3.69,4.42,8.44,8.19,13.69,10.44-5.96-6.13-10.49-12.95-13.05-20.52,8.69-10.55,25.86-10.72,53.72-11.01,4.44-.05,8.66-.09,12.66-.09,18.06,0,31.5.9,40.16,6.51-2.42,4.15-5.45,8.05-9,11.69,5.25-2.25,10-6.02,13.69-10.44,4.8-5.77,7.81-12.91,8.83-20.33,1.09,1.09,2.07,2.27,2.89,3.53,5.59,8.57,2.32,20.62-1.84,27.84-1.38,2.4-2.81,4.16-3.76,5.24.4,2.44.72,5.14.9,8.06.16,2.55.19,4.94.13,7.15Z"/>
  </g>
</svg>