<?xml version="1.0" encoding="UTF-8"?>
<svg id="katman_1" data-name="katman 1" xmlns="http://www.w3.org/2000/svg" xmlns:xlink="http://www.w3.org/1999/xlink" viewBox="0 0 208.22 157.28">
  <defs>
    <style>
      .cls-1 {
        fill: url(#Adsız_degrade_264);
      }

      .cls-2 {
        fill: #e04438;
      }

      .cls-3 {
        fill: #25201f;
      }

      .cls-4 {
        fill: url(#Adsız_degrade_264-2);
      }

      .cls-5 {
        fill: #f1f1f1;
      }

      .cls-6 {
        fill: #ff624f;
      }
    </style>
    <linearGradient id="Adsız_degrade_264" data-name="Adsız degrade 264" x1="177.42" y1="61.91" x2="195.3" y2="22.93" gradientUnits="userSpaceOnUse">
      <stop offset="0" stop-color="#ff624f"/>
      <stop offset=".19" stop-color="#fa5f4d"/>
      <stop offset=".41" stop-color="#ec594a"/>
      <stop offset=".65" stop-color="#d54e44"/>
      <stop offset=".89" stop-color="#b5403c"/>
      <stop offset="1" stop-color="#a43838"/>
    </linearGradient>
    <linearGradient id="Adsız_degrade_264-2" data-name="Adsız degrade 264" x1="30.75" y1="83.64" x2="14.83" y2="37.04" xlink:href="#Adsız_degrade_264"/>
  </defs>
  <g>
    <path class="cls-6" d="M194.03,87.62c0,9.36.08,26.17-8.83,39.47-14.94,22.29-47.27,23.06-75.99,23.74-28.75.68-68.28,1.62-85.05-23.73-8.89-13.43-8.83-30.41-8.83-39.48,0-10.85-.07-27.18,8.83-39.48,12.83-17.73,37.68-17.99,77.58-18.4,41.8-.43,69.73-.72,83.45,18.41,8.84,12.32,8.83,28.58,8.83,39.47Z"/>
    <path class="cls-2" d="M32.93,39.52c.31,5.72,1.43,13.96,5.16,23.12,2.66,6.53,5.89,11.7,8.7,15.49-2.56-2.56-5.19-5.46-7.81-8.74-6.23-7.81-10.53-15.49-13.51-22.05,2.49-2.61,4.98-5.22,7.47-7.82Z"/>
    <path class="cls-2" d="M39.69,137.32c43.64,9.56,76.94,5.87,96.55,1.96,18.67-3.72,28.09-8.28,35.56-15.47,19.76-19.01,17.83-48.63,17.07-56.54,2.12,6.36,4.77,17.07,3.56,30.23-.61,6.62-2.59,23.9-14.4,36.81-7.11,7.77-20.61,10.44-47.3,15.47-27.1,5.1-41.09,7.04-57.79,3.02-15.2-3.66-26.46-10.55-33.25-15.47Z"/>
    <path class="cls-2" d="M169.67,35.25c-.07,2.52-.38,5.55-1.24,8.89-1.81,7-5.17,12.07-7.59,15.1,4.55-4.62,9.09-9.24,13.64-13.86-1.6-3.38-3.2-6.76-4.8-10.14Z"/>
    <path class="cls-1" d="M160.83,59.25c4.88-3.37,16.84-12.62,22.64-29.31,3.08-8.87,3.37-16.79,3.09-22.07,3.36,1.92,11.82,7.39,15.45,17.76,4.84,13.81-.89,30.62-14.65,41.57"/>
    <path class="cls-4" d="M47,77.33c-4.88-3.37-16.84-12.62-22.64-29.31-3.08-8.87-3.37-16.79-3.09-22.07-3.36,1.92-11.82,7.39-15.45,17.76-4.84,13.81.89,30.62,14.65,41.57"/>
    <g>
      <ellipse class="cls-2" cx="138.13" cy="98.96" rx="22.91" ry="16.86" transform="translate(.18 198.18) rotate(-71.34)"/>
      <ellipse class="cls-2" cx="80.88" cy="93.09" rx="20.69" ry="29.13" transform="translate(-26.51 32.47) rotate(-19.57)"/>
    </g>
  </g>
  <g>
    <g>
      <g>
        <ellipse class="cls-3" cx="135.61" cy="99.17" rx="22.91" ry="16.86" transform="translate(-1.73 195.93) rotate(-71.34)"/>
        <ellipse class="cls-3" cx="78.35" cy="93.29" rx="20.69" ry="29.13" transform="translate(-26.73 31.64) rotate(-19.57)"/>
      </g>
      <ellipse class="cls-5" cx="67.82" cy="105.64" rx="2.2" ry="5.88" transform="translate(-48.43 58.25) rotate(-35.12)"/>
      <ellipse class="cls-5" cx="123.12" cy="107.09" rx="1.96" ry="4.48" transform="translate(-18.24 25.58) rotate(-11.05)"/>
      <ellipse class="cls-5" cx="63" cy="96.36" rx="2.2" ry="3.56" transform="translate(-25.93 23.25) rotate(-17.4)"/>
      <ellipse class="cls-5" cx="122.6" cy="99.33" rx="2.53" ry="1.52" transform="translate(11.82 211.69) rotate(-84.42)"/>
    </g>
    <path class="cls-3" d="M97.41,124.9c1.67,4.7,6.12,7.88,11.09,7.92,5.05.05,9.6-3.15,11.3-7.92h-22.39Z"/>
  </g>
  <path class="cls-3" d="M201.35,56.19c12.67-18.15,7.37-40.82-12.07-51.63l-8.17-4.56.57,9.23c.58,9.38-.91,18.06-4.04,26.11-6.05-3.67-13.49-6.19-22.62-7.67-14.36-2.34-32.32-2.15-53.13-1.93-34.92.36-59.62.64-74.97,13.36-.48-3.8-.63-7.72-.38-11.78l.57-9.23s-8.17,4.56-8.17,4.56C-.49,33.44-5.79,56.12,6.88,74.27c1.12,1.59,2.37,3.09,3.71,4.5-.16,3.5-.17,6.8-.17,9.71v.4c0,9.61,0,27.51,9.68,42.14,8.24,12.45,21.77,20.25,41.37,23.84,10.65,1.95,22.02,2.42,32.63,2.42,5.41,0,10.62-.12,15.43-.24,14.81-.35,30.13-.71,44.17-3.89,16.75-3.79,28.51-11.02,35.94-22.12,9.7-14.47,9.7-32.42,9.7-42.06v-.25h-5.11l5.11-.02c0-7.41,0-17.28-2.66-27.02,1.71-1.68,3.28-3.52,4.67-5.5ZM189.11,88.7v.27c0,9.16,0,24.48-7.96,36.37-13.46,20.09-44.49,20.83-71.86,21.48-27.62.65-65.45,1.55-80.67-21.44-7.99-12.07-7.99-27.96-7.98-36.5v-.4c0-.35,0-.69,0-1.04,0-.38,0-.76,0-1.14-.05-.05-.11-.1-.16-.16-1.84-2.26-3.56-4.53-5.03-6.9-7.09-11.06-10.01-26.15-2.48-37.51,1.11-1.7,2.43-3.29,3.9-4.76,1.37,10,5.43,19.62,11.9,27.39,4.97,5.95,11.36,11.03,18.44,14.07-8.03-8.25-14.13-17.45-17.58-27.64,11.71-14.21,34.84-14.45,72.37-14.83,5.99-.06,11.67-.12,17.05-.12,24.33,0,42.43,1.22,54.11,8.76-3.26,5.59-7.34,10.84-12.13,15.75,7.08-3.04,13.47-8.12,18.44-14.07,6.47-7.77,10.53-17.39,11.9-27.39,1.47,1.47,2.79,3.06,3.9,4.76,7.53,11.55,3.12,27.78-2.48,37.51-1.86,3.23-3.79,5.61-5.07,7.06.54,3.29.97,6.92,1.22,10.85.21,3.44.25,6.66.18,9.63Z"/>
</svg>